<?xml version="1.0" encoding="UTF-8" standalone="no"?>
<!DOCTYPE svg PUBLIC "-//W3C//DTD SVG 1.1//EN" "http://www.w3.org/Graphics/SVG/1.1/DTD/svg11.dtd">
<!-- Created with Vectornator (http://vectornator.io/) -->
<svg height="100%" stroke-miterlimit="10" style="fill-rule:nonzero;clip-rule:evenodd;stroke-linecap:round;stroke-linejoin:round;" version="1.1" viewBox="0 0 1080 810" width="100%" xml:space="preserve" xmlns="http://www.w3.org/2000/svg" xmlns:vectornator="http://vectornator.io" xmlns:xlink="http://www.w3.org/1999/xlink">
<defs>
<linearGradient gradientTransform="matrix(0.475419 -0.00149573 0.00150335 0.47301 188.091 18.7808)" gradientUnits="userSpaceOnUse" id="LinearGradient" x1="207.447" x2="592.232" y1="637.423" y2="637.423">
<stop offset="0.466635" stop-color="#f2cb05"/>
<stop offset="1" stop-color="#f2911b"/>
</linearGradient>
<filter color-interpolation-filters="sRGB" filterUnits="userSpaceOnUse" height="368.648" id="Filter" width="208.608" x="275.006" y="145.374">
<feDropShadow dx="-3.67321e-05" dy="10" flood-color="#000000" flood-opacity="0.333" in="SourceGraphic" result="Shadow" stdDeviation="5"/>
</filter>
<filter color-interpolation-filters="sRGB" filterUnits="userSpaceOnUse" height="369.889" id="Filter_2" width="206.749" x="577.174" y="143.629">
<feDropShadow dx="-3.67321e-05" dy="10" flood-color="#000000" flood-opacity="0.2" in="SourceGraphic" result="Shadow" stdDeviation="5"/>
</filter>
<linearGradient gradientTransform="matrix(0.370847 -0.00116674 0.00113294 0.356466 262.266 13.0174)" gradientUnits="userSpaceOnUse" id="LinearGradient_2" x1="569.264" x2="869.298" y1="244.747" y2="244.747">
<stop offset="0.602786" stop-color="#03a64a"/>
<stop offset="1" stop-color="#108c03"/>
</linearGradient>
<filter color-interpolation-filters="sRGB" filterUnits="userSpaceOnUse" height="152.487" id="Filter_3" width="136.266" x="461.156" y="33.1778">
<feDropShadow dx="-3.67321e-05" dy="10" flood-color="#000000" flood-opacity="0.333" in="SourceGraphic" result="Shadow" stdDeviation="5"/>
</filter>
<filter color-interpolation-filters="sRGB" filterUnits="userSpaceOnUse" height="150.212" id="Filter_4" width="136.264" x="576.199" y="35.123">
<feDropShadow dx="-3.67321e-05" dy="10" flood-color="#000000" flood-opacity="0.333" in="SourceGraphic" result="Shadow" stdDeviation="5"/>
</filter>
<filter color-interpolation-filters="sRGB" filterUnits="userSpaceOnUse" height="147.555" id="Filter_5" width="136.539" x="345.887" y="38.4821">
<feDropShadow dx="-3.67321e-05" dy="10" flood-color="#000000" flood-opacity="0.333" in="SourceGraphic" result="Shadow" stdDeviation="5"/>
</filter>
<linearGradient gradientTransform="matrix(0.475419 -0.00149573 0.00150335 0.47301 188.091 18.7808)" gradientUnits="userSpaceOnUse" id="LinearGradient_3" x1="451.174" x2="982.651" y1="632.955" y2="632.955">
<stop offset="0" stop-color="#078d41"/>
<stop offset="0.530953" stop-color="#236d43"/>
</linearGradient>
<filter color-interpolation-filters="sRGB" filterUnits="userSpaceOnUse" height="373.514" id="Filter_6" width="277.996" x="390.508" y="140.268">
<feDropShadow dx="-3.67321e-05" dy="10" flood-color="#000000" flood-opacity="0.333" in="SourceGraphic" result="Shadow" stdDeviation="5"/>
</filter>
</defs>
<g id="Layer-1" vectornator:layerName="Layer 1">
<path d="M288.383 147.874C288.211 148.04 287.867 148.139 287.866 148.374C287.761 169.242 288.043 190.11 288.065 210.979C288.086 230.683 287.447 248.874 287.51 268.579C287.511 268.765 287.73 268.972 287.846 269.12C289.531 271.265 294.015 271.023 296.041 271.065C302.184 271.193 308.671 272.659 314.475 274.499C332.928 280.347 346.666 293.864 353.773 310.791C361.257 328.615 360.127 350.478 360.185 368.887C360.216 378.547 359.508 388.161 360.018 397.82C361.401 424.059 370.473 450.328 390.085 469.061C394.245 473.035 402.276 479.053 408.286 480.477C410.555 481.015 412.927 482.441 415.042 483.449C420.643 486.12 428.044 487.319 434.26 488.627C444.538 490.788 455.13 491.554 465.667 491.521C467.553 491.515 469.347 491.328 471.114 490.755C470.934 434.137 470.84 377.518 470.574 320.899C470.563 318.448 469.807 315.745 468.994 313.422C462.724 295.526 446.402 284.222 429.433 276.133C423.365 273.24 416.446 271.269 409.949 269.21C409.215 268.977 403.983 268.038 403.975 267.233C403.72 240.962 403.98 214.688 403.724 188.416C403.714 187.371 398.74 185.078 397.744 184.444C391.938 180.75 385.795 177.254 379.547 174.275C361.182 165.52 341.193 157.896 320.576 153.01C310.943 150.727 300.809 150.382 288.383 147.874Z" fill="url(#LinearGradient)" fill-rule="nonzero" filter="url(#Filter)" stroke="none" vectornator:layerName="Curve 1" vectornator:shadowAngle="1.5708" vectornator:shadowColor="#000000" vectornator:shadowOffset="10" vectornator:shadowOpacity="0.333" vectornator:shadowRadius="10"/>
<path d="M767.651 146.366C760.666 147.542 753.551 148.176 746.643 149.674C722.967 154.81 699.072 162.018 678.734 173.833C672.919 177.211 667.028 180.434 661.121 183.865C660.287 184.35 655.436 186.743 655.424 187.624C655.081 213.812 651.882 238.644 651.708 264.833C651.702 265.743 650.134 268.196 649.194 268.457C642.96 270.191 636.594 272.439 630.792 275.25C612.838 283.948 593.401 296.856 589.927 317.281C589.814 317.943 589.673 318.607 589.674 319.278C589.684 376.229 589.69 433.181 589.957 490.132C589.964 491.567 592.879 490.814 594.371 490.867C600.393 491.079 605.844 491.055 611.755 490.562C635.662 488.572 658.724 479.905 675.762 463.423C691.313 448.381 699.911 416.685 700.2 396.251C700.323 387.605 700.405 378.958 700.377 370.311C700.349 361.331 700.061 352.354 700.032 343.374C699.996 331.934 702.695 310.052 710.533 299.941C713.611 295.971 716.151 291.504 719.836 287.94C726.905 281.102 735.389 276.411 744.701 273.395C750.535 271.505 756.968 270.146 763.113 269.845C765.706 269.718 768.313 269.812 770.897 269.571C771.141 269.548 771.414 269.306 771.414 269.07C771.457 228.331 771.328 187.592 771.026 146.854C771.018 145.76 768.772 146.177 767.651 146.366Z" fill="#f22727" fill-rule="nonzero" filter="url(#Filter_2)" stroke="none" vectornator:layerName="Curve 2" vectornator:shadowAngle="1.5708" vectornator:shadowColor="#000000" vectornator:shadowOffset="10" vectornator:shadowOpacity="0.2" vectornator:shadowRadius="10"/>
<path d="M524.9 35.6778C490.054 39.3035 469.796 77.9515 474.271 109.478C475.388 117.346 476.954 128.642 481.998 135.065C489.082 144.084 495.712 153.816 507.381 158.261C516.368 161.683 524.322 163.196 534.383 163.164C539.998 163.147 545.878 160.718 550.716 158.374C570.257 148.906 582.731 129.486 584.551 108.632C586.546 85.7644 580.633 65.7733 563.9 49.7915C561.378 47.3826 550.443 39.3304 546.776 38.4612C543.645 37.7193 540.642 36.7131 537.324 35.813" fill="url(#LinearGradient_2)" fill-rule="nonzero" filter="url(#Filter_3)" stroke="none" vectornator:layerName="Curve 3" vectornator:shadowAngle="1.5708" vectornator:shadowColor="#000000" vectornator:shadowOffset="10" vectornator:shadowOpacity="0.333" vectornator:shadowRadius="10"/>
<path d="M640.531 37.7339C602.365 40.0118 583.558 81.1846 589.915 114.217C592.375 127.001 599.648 139.179 609.226 148.327C611.513 150.512 618.737 147.008 621.674 146.293C631.842 143.815 645.187 146.52 655.673 146.487C655.74 146.487 652.704 145.629 653.404 145.962C658.036 148.171 650.231 163.856 655.724 162.782C659.882 161.97 666.418 157.182 669.967 155.12C686.422 145.561 695.072 130.029 698.635 112.628C702.694 92.8043 697.45 70.293 682.884 55.3098C679.677 52.0114 674.538 46.2519 669.615 44.3769C658.967 40.3212 653.449 36.9629 640.531 37.7339Z" fill="#ed4c38" fill-rule="nonzero" filter="url(#Filter_4)" stroke="none" vectornator:layerName="Curve 4" vectornator:shadowAngle="1.5708" vectornator:shadowColor="#000000" vectornator:shadowOffset="10" vectornator:shadowOpacity="0.333" vectornator:shadowRadius="10"/>
<path d="M410.566 40.9821C368.647 44.4726 348.541 93.757 363.099 128.43C368.01 140.128 376.585 151.687 388.104 158.282C390.701 159.769 415.85 163.537 415.85 163.537C415.85 163.537 402.849 152.998 402.999 147.513C403.036 146.16 404.564 146.321 405.971 146.253C408.65 146.125 411.331 145.987 414.014 145.979C422.708 145.951 431.575 147.897 439.975 149.888C440.679 150.055 448.263 152.374 448.286 152.356C454.998 147.099 459.801 139.332 463.532 132.105C481.614 97.0708 460.528 44.5351 410.566 40.9821Z" fill="#f2cb05" fill-rule="nonzero" filter="url(#Filter_5)" stroke="none" vectornator:layerName="Curve 5" vectornator:shadowAngle="1.5708" vectornator:shadowColor="#000000" vectornator:shadowOffset="10" vectornator:shadowOpacity="0.333" vectornator:shadowRadius="10"/>
<path d="M407.993 143.506C406.32 143.646 403.109 142.906 403.066 144.52C402.916 150.171 403.102 155.827 403.12 161.48C403.12 161.647 403.121 161.813 403.121 161.979C403.149 170.626 403.176 179.272 403.204 187.919C403.204 188.085 403.205 188.252 403.206 188.418C403.289 214.773 403.201 241.13 403.457 267.484C403.465 268.34 408.192 269.018 408.912 269.213C413.852 270.553 418.706 272.346 423.459 274.156C437.178 279.381 451.219 287.48 460.384 298.733C462.685 301.558 465.956 305.587 466.904 309.188C467.891 312.932 469.77 316.657 469.795 320.652C470.146 377.354 470.156 434.057 470.595 490.757C470.601 491.466 471.782 491.252 472.154 491.251C511.509 491.127 550.865 491.169 590.219 490.88C590.464 490.878 590.737 490.614 590.736 490.379C590.642 433.428 590.115 376.478 589.934 319.526C589.872 299.968 615.046 281.86 632.09 275.246C638.183 272.88 644.255 270.723 650.492 268.703C651.252 268.457 655.988 265.991 655.991 265.05C656.119 226.801 655.242 150.608 655.242 150.608C655.242 150.608 655.11 146.256 655.037 144.076C654.99 142.642 652.882 143.051 651.39 142.99C648.451 142.871 645.509 142.759 642.567 142.768C635.905 142.789 629.076 144.169 622.595 145.575C586.17 153.475 557.025 174.92 529.608 198.496C499.289 169.537 459.27 146.364 407.993 143.506Z" fill="url(#LinearGradient_3)" fill-rule="nonzero" filter="url(#Filter_6)" stroke="none" vectornator:layerName="Curve 6" vectornator:shadowAngle="1.5708" vectornator:shadowColor="#000000" vectornator:shadowOffset="10" vectornator:shadowOpacity="0.333" vectornator:shadowRadius="10"/>
<g fill="#090000" opacity="1" stroke="none" vectornator:blendMode="luminosity" vectornator:layerName="Text 7">
<path d="M140.737 577.562C140.74 578.245 140.443 578.587 139.845 578.588C139.333 578.589 138.97 578.376 138.754 577.95C138.539 577.524 138.127 576.074 137.519 573.601C135.782 566.778 132.477 562.22 127.602 559.926C124.695 558.567 119.529 557.896 112.105 557.912C108.692 557.92 104.767 558.056 100.331 558.322L100.505 597.489L104.217 597.481C112.238 597.464 117.248 596.6 119.245 594.889C121.243 593.178 122.737 588.438 123.726 580.671C123.892 579.561 124.316 579.006 124.999 579.004C125.682 579.003 126.026 579.642 126.032 580.922C126.03 580.495 125.989 581.071 125.911 582.65C125.833 584.229 125.802 586.81 125.817 590.394L125.854 598.714C125.881 604.688 125.941 608.634 126.035 610.554C126.129 612.474 126.179 614.116 126.185 615.482C126.191 616.847 125.81 617.53 125.042 617.532C123.932 617.534 123.286 616.171 123.104 613.44C122.649 607.212 121.095 603.162 118.442 601.29C117.158 600.355 114.894 599.89 111.651 599.897C107.299 599.907 103.588 599.957 100.516 600.049L100.653 631.025C100.677 636.486 101.118 639.685 101.976 640.622C102.833 641.559 105.779 642.022 110.814 642.011C112.35 642.008 113.12 642.347 113.123 643.03C113.126 643.798 112.317 644.184 110.696 644.187C108.818 644.191 106.557 644.154 103.911 644.074C98.6197 643.915 92.646 643.842 85.99 643.857C81.2967 643.867 77.1586 644.004 73.5758 644.268C73.0641 644.354 72.467 644.398 71.7843 644.4C70.7603 644.402 70.2466 644.019 70.2432 643.251C70.2398 642.483 71.6033 642.053 74.3335 641.962C78.3434 641.783 80.558 640.839 80.9771 639.132C81.3154 638.448 81.4807 637.253 81.4732 635.547L81.0163 561.308C80.8403 560.113 80.3461 559.304 79.5335 558.879C78.721 558.454 77.0983 558.159 74.6656 557.994C72.2328 557.828 71.0151 557.447 71.0125 556.849C71.0087 555.996 71.8601 555.568 73.5668 555.564L75.9988 555.559C76.3401 555.558 79.5826 555.508 85.7262 555.409C92.5521 555.224 98.5677 555.126 103.773 555.114C111.538 555.012 118.109 554.998 123.485 555.071L132.318 555.18C133.683 555.177 135.73 555.045 138.46 554.783C139.188 565.021 139.902 572.102 140.602 576.026C140.69 576.538 140.734 577.05 140.737 577.562Z"/>
<path d="M219.66 621.422C219.66 621.593 219.635 625.561 219.584 633.327C219.517 637.423 219.466 640.367 219.431 642.159C219.397 643.951 219.379 644.804 219.379 644.719C196.846 643.744 177.133 643.488 160.239 643.952L149.488 644.231C147.952 644.234 147.183 643.895 147.18 643.212C147.177 642.7 147.368 642.401 147.752 642.315C148.135 642.229 149.436 642.098 151.654 641.922C155.663 641.657 157.834 640.501 158.167 638.452C158.332 637.342 158.412 636.105 158.406 634.74L158.119 569.844C158.096 564.724 158.041 561.908 157.953 561.397C157.862 560.031 157.431 559.094 156.661 558.583C155.89 558.073 154.311 557.82 151.921 557.826C149.276 557.831 147.952 557.45 147.948 556.682C147.944 555.829 149.116 555.4 151.463 555.395C153.809 555.39 157.073 555.34 161.254 555.245C176.954 554.87 189.796 554.757 199.781 554.906L208.485 555.015C210.363 555.011 212.666 554.835 215.395 554.488L216.609 568.437C217.055 572.873 217.281 575.604 217.285 576.628C217.289 577.481 216.864 577.909 216.011 577.91C215.157 577.912 214.598 576.804 214.332 574.586C213.538 568.7 211.151 564.417 207.171 561.738C203.191 559.058 197.319 557.727 189.553 557.744C187.164 557.749 183.069 557.886 177.267 558.155L177.434 595.914C186.821 595.979 192.728 595.305 195.153 593.892C197.579 592.478 199.206 588.827 200.033 582.937C200.446 579.779 201.079 578.199 201.932 578.197C202.7 578.195 203.087 578.962 203.094 580.498C203.101 582.034 202.987 585.192 202.752 589.971C202.674 591.593 202.641 593.769 202.653 596.499C202.686 603.838 202.795 609.384 202.983 613.139C203.07 613.65 203.116 614.29 203.119 615.058C203.124 616.082 202.742 616.595 201.974 616.597C201.377 616.598 200.992 616.407 200.82 616.023C200.647 615.64 200.385 614.254 200.033 611.865C199.153 605.808 197.963 602.035 196.463 600.545C194.963 599.055 191.525 598.316 186.149 598.327L177.445 598.346L177.636 641.482L185.828 641.336C195.213 641.145 200.93 640.919 202.977 640.659C205.535 640.312 208.006 639.368 210.388 637.827C212.514 636.115 213.978 634.277 214.78 632.313C215.582 630.349 216.44 626.72 217.356 621.427C217.606 620.147 218.03 619.506 218.627 619.505C219.31 619.503 219.654 620.142 219.66 621.422Z"/>
<path d="M299.031 622.018C299.038 623.639 299.001 625.005 298.921 626.114C298.596 629.87 298.482 632.899 298.577 635.203L298.745 644.291C287.821 643.888 268.065 643.717 239.479 643.779L234.103 643.791C230.348 643.799 228.469 643.462 228.466 642.779C228.463 642.097 229.059 641.754 230.254 641.751C234.52 641.657 237.248 641.054 238.438 639.942C239.203 639.257 239.578 637.208 239.563 633.795L239.127 564.42C239.114 561.519 238.85 559.727 238.335 559.046C237.306 557.768 235.724 557.174 233.591 557.264L230.392 557.399C229.453 557.401 228.983 557.061 228.98 556.378C228.976 555.696 229.572 555.353 230.767 555.35C231.45 555.349 232.132 555.39 232.816 555.474L265.327 555.403C265.754 555.317 266.223 555.273 266.735 555.272C267.588 555.27 268.016 555.611 268.019 556.293C268.023 557.061 266.915 557.448 264.697 557.453C261.539 557.459 259.685 557.847 259.134 558.617C258.582 559.386 258.32 562.757 258.346 568.73L258.481 599.194C258.509 605.423 258.741 619.375 259.179 641.049C260.801 641.13 262.635 641.169 264.683 641.165C273.643 641.145 279.829 640.79 283.239 640.1C288.61 638.979 292.267 636.241 294.21 631.884C295.225 629.664 296.148 626.12 296.979 621.254C297.229 619.889 297.61 619.205 298.122 619.204C298.72 619.203 299.023 620.141 299.031 622.018Z"/>
<path d="M346.747 642.65C346.75 643.333 346.196 643.675 345.087 643.678C344.49 643.679 343.935 643.638 343.423 643.553C338.301 643.309 333.906 643.19 330.237 643.198C326.397 643.206 320.765 643.347 313.343 643.619C310.868 643.71 309.034 643.756 307.839 643.759C306.559 643.762 305.918 643.379 305.914 642.611C305.912 642.184 306.146 641.928 306.615 641.841C307.084 641.755 308.726 641.666 311.542 641.575C314.185 641.057 315.717 640.264 316.139 639.197C316.561 638.129 316.759 634.694 316.733 628.891L316.461 567.324C316.453 565.703 316.446 564.124 316.44 562.588C316.348 561.052 316.302 560.327 316.302 560.412C316.293 558.279 314.155 557.217 309.888 557.226C307.499 557.232 306.303 556.936 306.3 556.338C306.297 555.741 306.466 555.399 306.807 555.313C307.148 555.227 308.257 555.182 310.135 555.178C309.281 555.18 310.818 555.219 314.743 555.296C318.669 555.373 322.04 555.408 324.856 555.402L331.384 555.388C332.749 555.385 334.69 555.316 337.207 555.183C339.724 555.05 341.494 554.982 342.518 554.979L343.798 554.977C344.907 554.974 345.464 555.314 345.467 555.997C345.469 556.509 345.278 556.829 344.895 556.958C344.511 557.087 343.211 557.197 340.992 557.287C338.348 557.463 336.729 558.021 336.136 558.961L335.763 561.394L336.083 633.713C336.099 637.383 336.514 639.558 337.328 640.239C338.142 640.92 340.896 641.383 345.59 641.629C346.358 641.712 346.744 642.053 346.747 642.65Z"/>
<path d="M443.905 642.055C443.908 642.908 442.716 643.338 440.326 643.343C439.985 643.344 439.387 643.302 438.534 643.219C437.68 643.221 436.784 643.223 435.846 643.225L414.726 643.271C410.63 643.279 407.387 643.329 404.998 643.42C402.609 643.51 400.519 643.557 398.727 643.561C397.532 643.564 396.933 643.139 396.929 642.285C396.926 641.603 397.351 641.196 398.204 641.066C399.057 640.937 402 640.866 407.035 640.855C409.339 640.85 410.488 640.208 410.483 638.928C410.477 637.733 408.798 634.281 405.445 628.571C402.778 623.798 398.779 616.681 393.446 607.221C393.102 606.624 392.543 605.687 391.769 604.408C388.803 608.938 384.672 615.475 379.376 624.019C374.081 632.564 371.436 637.434 371.441 638.629C371.447 639.994 372.261 640.717 373.883 640.799C374.907 640.882 377.595 640.962 381.948 641.038C383.313 641.035 383.997 641.417 384.001 642.185C384.005 643.209 382.898 643.724 380.68 643.729L366.342 643.504C366.342 643.504 365.916 643.505 365.063 643.506C364.21 643.594 363.399 643.638 362.631 643.64L355.08 643.784C353.373 643.788 352.518 643.406 352.515 642.638C352.512 641.955 353.321 641.569 354.941 641.48C359.378 641.215 362.765 640.205 365.104 638.45C367.443 636.696 370.052 633.213 372.93 628.001C373.861 626.378 375.344 623.943 377.378 620.696C383.479 611.125 387.589 604.546 389.706 600.957C388.415 598.4 385.446 592.902 380.801 584.464L373.316 570.657C370.39 565.116 368.455 561.728 367.511 560.493C366.567 559.258 365.325 558.343 363.787 557.749C363.445 557.665 360.884 557.5 356.104 557.254C354.824 557.257 354.183 556.917 354.18 556.234C354.176 555.381 355.198 554.952 357.246 554.947C357.502 554.947 358.228 554.988 359.423 555.071C360.618 555.153 361.685 555.194 362.623 555.192L382.208 555.405C385.366 555.398 388.907 555.305 392.831 555.126C394.452 555.037 395.86 554.992 397.055 554.989L398.207 554.986C399.572 554.983 400.256 555.366 400.26 556.134C400.262 556.731 399.965 557.116 399.369 557.288C398.772 557.46 397.279 557.548 394.89 557.554C390.709 557.563 388.622 558.549 388.631 560.511C388.637 561.791 390.79 566.395 395.092 574.321C396.469 576.878 398.791 581.012 402.059 586.722C413.169 571.167 418.718 562.11 418.707 559.55C418.7 557.929 417.118 557.121 413.96 557.128L410.76 557.135C409.651 557.138 409.095 556.797 409.092 556.115C409.09 555.688 409.259 555.368 409.599 555.154C409.94 554.94 410.793 554.831 412.158 554.828C413.438 554.825 415.358 554.885 417.919 555.008C420.479 555.13 422.4 555.19 423.68 555.187C426.666 555.181 429.269 555.09 431.487 554.914C432.595 554.826 433.619 554.782 434.558 554.779C436.179 554.776 436.992 555.201 436.996 556.054C436.998 556.651 435.677 556.996 433.032 557.087C429.193 557.18 426.614 557.719 425.295 558.704C423.977 559.688 421.835 562.658 418.871 567.614C416.16 572.142 413.745 575.945 411.625 579.021L403.867 590.302C410.146 601.467 417.932 615.872 427.227 633.515C429.034 637.01 430.644 639.119 432.055 639.841C433.466 640.563 436.433 640.877 440.955 640.782C442.918 640.777 443.901 641.202 443.905 642.055Z"/>
<path d="M558.62 615.438C558.623 616.291 557.004 616.679 553.761 616.6C549.92 616.523 547.876 617.381 547.628 619.174C547.462 620.198 547.391 623.569 547.417 629.286C547.426 631.249 547.476 632.998 547.568 634.534C537.444 641.468 527.774 644.945 518.558 644.965C506.441 644.991 496.289 640.747 488.101 632.231C479.914 623.716 475.793 613.101 475.736 600.386C475.677 586.903 479.808 575.673 488.131 566.695C496.454 557.717 506.93 553.214 519.559 553.187C524.765 553.175 530.146 554.444 535.704 556.992C537.757 557.926 539.167 558.392 539.935 558.39C541.3 558.388 542.447 557.361 543.377 555.311C543.799 554.286 544.266 553.773 544.778 553.772C545.376 553.771 545.676 554.197 545.68 555.05C545.681 555.221 545.56 556.928 545.319 560.171C545.238 561.195 545.206 563.627 545.223 567.467C545.236 570.368 545.334 573.312 545.518 576.298C545.702 579.285 545.794 580.778 545.794 580.778C545.801 582.399 545.378 583.211 544.525 583.213C543.33 583.215 542.512 581.51 542.07 578.098C541.013 570.591 538.512 564.666 534.567 560.322C531.652 557.171 527.592 555.601 522.386 555.613C506.258 555.648 498.258 570.001 498.385 598.673C498.464 616.507 501.164 628.917 506.486 635.903C509.833 640.333 514.281 642.542 519.827 642.53C526.825 642.515 530.304 638.07 530.264 629.195C530.235 622.54 529.941 618.807 529.383 617.997C528.824 617.188 527.393 616.786 525.089 616.791L521.889 616.798C520.097 616.802 519.2 616.42 519.196 615.652C519.193 614.884 519.916 614.498 521.367 614.495C524.354 614.488 528.109 614.523 532.632 614.598L540.824 614.709C542.446 614.705 545.027 614.635 548.567 614.5C552.108 614.364 554.39 614.295 555.414 614.293L557.078 614.289C558.102 614.287 558.616 614.67 558.62 615.438Z"/>
<path d="M588.923 635.084C588.935 637.729 588.091 639.907 586.392 641.618C584.693 643.328 582.52 644.186 579.875 644.192C577.23 644.197 575.007 643.328 573.207 641.582C571.408 639.837 570.502 637.684 570.491 635.124C570.479 632.479 571.365 630.258 573.149 628.462C574.933 626.666 577.148 625.766 579.793 625.76C582.268 625.754 584.405 626.646 586.205 628.434C588.005 630.222 588.911 632.439 588.923 635.084Z"/>
<path d="M704.172 555.602C704.174 556.199 703.621 556.541 702.512 556.629C697.479 556.896 694.452 557.5 693.432 558.441C692.494 558.614 689.28 564.978 683.789 577.534C682.606 580.267 680.831 584.196 678.465 589.321C675.505 595.301 673.772 599.209 673.269 601.045C672.765 602.88 672.524 606.23 672.545 611.094L672.787 636.822C672.794 638.272 673.416 639.231 674.656 639.698C675.895 640.164 678.35 640.436 682.02 640.514C683.897 640.51 684.837 640.934 684.841 641.788C684.844 642.47 684.035 642.813 682.414 642.817C682.072 642.818 681.091 642.777 679.469 642.695C677.507 642.7 674.776 642.663 671.277 642.585L661.036 642.479C660.78 642.48 659.671 642.525 657.709 642.615C655.32 642.705 653.187 642.752 651.309 642.756L643.246 642.902C641.881 642.905 641.196 642.565 641.193 641.882C641.19 641.2 641.786 640.857 642.981 640.855C649.039 640.756 652.365 640.194 652.957 639.169C653.552 638.57 653.845 637.204 653.835 635.071L653.701 604.735C651.283 598.255 647.063 589.475 641.04 578.395C638.542 573.195 635.015 566.675 630.457 558.834C629.256 557.3 627.162 556.537 624.175 556.543L622.767 556.546C622.426 556.633 622 556.676 621.488 556.677C619.781 556.681 618.926 556.214 618.921 555.275C618.918 554.507 619.812 554.121 621.604 554.117C621.348 554.118 621.711 554.159 622.693 554.243C623.675 554.326 625.317 554.365 627.621 554.36L642.726 554.455C643.323 554.454 644.262 554.452 645.542 554.449C647.078 554.36 648.955 554.314 651.173 554.309L658.725 554.292C659.579 554.29 660.475 554.246 661.413 554.159C662.351 554.156 662.778 554.156 662.693 554.156C664.399 554.152 665.254 554.491 665.257 555.174C665.26 555.686 665.069 555.985 664.685 556.071C664.302 556.158 662.787 556.246 660.142 556.337C655.45 556.518 653.108 557.547 653.116 559.425C653.122 560.79 653.427 562.176 654.031 563.583C654.634 564.989 656.658 569.145 660.102 576.049C663.115 582.016 666.73 589.006 670.947 597.018C673.571 592.319 677.292 584.545 682.108 573.698C685.741 565.583 687.554 560.8 687.548 559.35C687.54 557.472 686.298 556.536 683.824 556.542C680.069 556.635 678.19 556.255 678.186 555.402C678.182 554.463 678.991 554.035 680.613 554.117L684.197 554.237C686.587 554.317 690.641 554.351 696.358 554.339L701.222 554.328C703.185 554.324 704.168 554.748 704.172 555.602Z"/>
<path d="M782.259 555.304C782.262 555.987 780.813 556.374 777.912 556.465C774.328 556.558 772.155 557.161 771.392 558.272C771.137 558.613 770.97 559.339 770.889 560.449L771.129 614.592C771.219 634.731 761.621 644.821 742.335 644.863C732.437 644.884 724.743 641.872 719.255 635.825C715.139 631.311 713.055 623.294 713.004 611.774L712.787 562.623C712.775 559.892 712.341 558.229 711.485 557.634C710.629 557.038 707.939 556.575 703.414 556.243C702.475 556.16 702.004 555.82 702.002 555.222C701.998 554.454 702.765 554.069 704.301 554.065C704.301 554.065 704.642 554.065 705.325 554.063C706.093 554.147 706.733 554.188 707.245 554.187L715.182 554.298C722.692 554.367 728.238 554.355 731.822 554.262C736.6 554.166 738.477 554.119 737.453 554.121L740.141 554.115C741.592 554.112 742.319 554.537 742.323 555.391C742.326 556.159 741.005 556.546 738.36 556.551C734.605 556.559 732.603 557.246 732.353 558.612C732.187 559.551 732.105 560.448 732.109 561.301L732.321 609.172C732.352 616.084 732.499 620.479 732.763 622.355C733.385 627.901 734.982 631.908 737.553 634.377C740.724 637.442 744.869 638.969 749.989 638.958C755.792 638.945 760.05 637.059 762.764 633.298C766.072 628.768 767.7 620.658 767.648 608.968L767.461 566.728C767.458 565.96 767.496 564.979 767.576 563.784C767.571 562.589 767.568 561.864 767.567 561.608C767.557 559.389 766.91 557.94 765.627 557.26C764.772 556.75 763.107 556.498 760.632 556.503C757.56 556.424 756.021 555.916 756.017 554.977C756.014 554.294 756.61 553.952 757.805 553.949C759.085 553.946 760.962 554.006 763.437 554.129C765.913 554.251 767.79 554.311 769.07 554.309C769.156 554.308 769.881 554.264 771.246 554.176C772.696 554.173 774.019 554.17 775.214 554.167L778.286 554.161C780.931 554.155 782.255 554.536 782.259 555.304Z"/>
<path d="M846.926 617.243C846.96 625.009 844.237 631.436 838.755 636.525C833.274 641.614 826.266 644.168 817.733 644.187C812.527 644.198 805.352 642.464 796.206 638.986C795.522 638.731 794.924 638.604 794.412 638.605C792.961 638.609 791.859 640.147 791.104 643.221C790.852 644.16 790.513 644.63 790.087 644.631C789.404 644.632 789.06 644.036 789.055 642.841C789.05 641.732 789.254 639.769 789.669 636.952C790 634.647 790.158 631.959 790.145 628.887C790.134 626.412 790.082 624.45 789.991 622.999C789.807 620.098 789.714 618.392 789.712 617.88C789.706 616.514 790.13 615.831 790.983 615.829C791.836 615.827 792.612 617.66 793.311 621.328C794.534 627.64 797.244 632.541 801.441 636.03C805.98 639.775 810.852 641.642 816.057 641.63C820.665 641.62 824.542 640.161 827.686 637.253C830.831 634.345 832.394 630.8 832.375 626.619C832.359 623.035 831.323 620.179 829.265 618.05C827.722 616.517 822.76 613.499 814.377 608.994C805.054 604.065 798.717 599.129 795.367 594.187C792.275 589.671 790.715 584.299 790.688 578.07C790.655 570.731 793.231 564.645 798.415 559.813C803.599 554.98 810.159 552.555 818.095 552.538C822.361 552.529 826.931 553.543 831.804 555.58C833.429 556.259 834.582 556.598 835.265 556.597C836.545 556.594 837.393 555.483 837.81 553.263C837.977 552.495 838.36 552.11 838.957 552.109C839.81 552.107 840.239 552.661 840.244 553.77C840.246 554.197 840.166 555.391 840.004 557.354C839.842 559.317 839.764 560.939 839.77 562.219C839.789 566.656 839.977 570.41 840.332 573.482C840.418 573.738 840.462 574.079 840.464 574.505C840.468 575.273 840.128 575.658 839.445 575.66C838.677 575.661 837.903 574.298 837.123 571.569C836.343 568.84 834.987 566.133 833.055 563.45C831.123 560.766 829.173 558.829 827.205 557.638C824.639 556.108 821.649 555.346 818.235 555.354C813.457 555.364 809.664 556.524 806.859 558.834C804.053 561.145 802.659 564.305 802.677 568.316C802.692 571.814 804.028 574.905 806.686 577.587C809.343 580.269 814.435 583.693 821.963 587.858C831.202 592.958 837.321 597.04 840.322 600.106C844.694 604.619 846.895 610.331 846.926 617.243Z"/>
<path d="M942.911 640.971C942.914 641.653 942.596 642.059 941.957 642.189C941.317 642.318 939.675 642.386 937.03 642.392C936.347 642.393 934.427 642.355 931.269 642.276C924.954 642.119 920.601 642.043 918.212 642.048C915.396 642.055 912.922 642.103 910.789 642.193C906.523 642.373 903.622 642.464 902.086 642.468C899.782 642.473 898.628 642.048 898.624 641.195C898.62 640.342 901.05 639.867 905.914 639.771C907.109 639.769 908.004 639.681 908.601 639.509C909.965 639.336 910.646 638.822 910.642 637.969C910.64 637.542 910.12 635.751 909.082 632.596L906.357 624.282C905.837 622.406 904.712 618.952 902.983 613.922L900.679 613.927L890.695 613.82C887.11 613.743 883.313 613.794 879.303 613.973C878.543 615.681 877.109 619.524 875.002 625.502L872.223 633.828C871.802 635.109 871.594 636.134 871.597 636.902C871.603 638.352 872.546 639.289 874.425 639.712C874.852 639.796 876.944 639.962 880.7 640.21C881.895 640.293 882.494 640.675 882.497 641.358C882.5 642.126 881.734 642.512 880.198 642.515L859.077 642.433C858.566 642.519 858.011 642.563 857.414 642.565C856.219 642.567 855.62 642.142 855.616 641.288C855.614 640.776 856.935 640.432 859.58 640.256C862.992 640.078 865.165 639.433 866.099 638.322C867.033 637.21 868.553 633.623 870.66 627.56C872.262 623.29 874.581 616.97 877.616 608.601L892.915 565.943C893.674 564.064 894.728 561.118 896.076 557.105C897.001 554.201 897.72 552.749 898.232 552.748C898.744 552.747 899.692 554.707 901.074 558.63C902.803 563.661 910.401 583.527 923.867 618.228C925.593 622.662 927.32 627.181 929.047 631.785C930.515 635.707 931.976 638.093 933.43 638.943C934.543 639.624 937.189 639.917 941.37 639.822C942.394 639.82 942.908 640.203 942.911 640.971ZM902.075 611.108C901.988 610.852 901.686 610.042 901.168 608.678C897.711 598.786 895.205 591.837 893.652 587.83C893.22 586.721 892.616 585.101 891.838 582.97L891.06 580.667C889.54 584.34 887.685 589.421 885.495 595.912C883.053 603.17 881.283 608.251 880.187 611.155C880.955 611.153 881.893 611.109 883.002 611.021C884.026 611.019 884.965 611.017 885.818 611.015L892.986 610.999C894.949 610.995 897.979 611.031 902.075 611.108Z"/>
<path d="M1024.46 554.906C1024.46 555.503 1023.91 555.845 1022.8 555.933C1017.77 556.2 1014.74 556.804 1013.72 557.745C1012.78 557.918 1009.57 564.282 1004.08 576.838C1002.89 579.571 1001.12 583.5 998.752 588.625C995.792 594.605 994.06 598.513 993.556 600.349C993.052 602.185 992.811 605.534 992.832 610.398L993.074 636.126C993.081 637.576 993.704 638.535 994.943 639.002C996.183 639.468 998.637 639.74 1002.31 639.818C1004.18 639.814 1005.12 640.238 1005.13 641.092C1005.13 641.774 1004.32 642.117 1002.7 642.121C1002.36 642.122 1001.38 642.081 999.756 641.999C997.794 642.004 995.063 641.967 991.564 641.889L981.323 641.783C981.067 641.784 979.958 641.829 977.996 641.919C975.607 642.009 973.474 642.056 971.597 642.06L963.533 642.206C962.168 642.209 961.484 641.869 961.481 641.186C961.478 640.504 962.073 640.161 963.268 640.159C969.326 640.06 972.652 639.498 973.245 638.473C973.839 637.874 974.132 636.508 974.122 634.375L973.988 604.039C971.57 597.559 967.35 588.779 961.327 577.699C958.83 572.499 955.302 565.979 950.745 558.138C949.543 556.604 947.449 555.841 944.462 555.847L943.054 555.85C942.713 555.937 942.287 555.98 941.775 555.981C940.068 555.985 939.213 555.518 939.209 554.579C939.205 553.811 940.1 553.425 941.892 553.421C941.636 553.422 941.998 553.463 942.98 553.547C943.962 553.63 945.605 553.669 947.909 553.664L963.013 553.759C963.611 553.758 964.549 553.756 965.829 553.753C967.365 553.664 969.242 553.618 971.461 553.613L979.013 553.596C979.866 553.595 980.762 553.55 981.7 553.463C982.639 553.46 983.065 553.46 982.98 553.46C984.687 553.456 985.542 553.796 985.545 554.478C985.547 554.99 985.356 555.289 984.973 555.375C984.589 555.462 983.075 555.55 980.43 555.641C975.737 555.822 973.395 556.851 973.403 558.729C973.409 560.094 973.714 561.48 974.318 562.887C974.921 564.293 976.945 568.449 980.389 575.353C983.402 581.32 987.017 588.31 991.234 596.322C993.859 591.623 997.579 583.849 1002.39 573.002C1006.03 564.887 1007.84 560.104 1007.84 558.654C1007.83 556.776 1006.59 555.84 1004.11 555.846C1000.36 555.939 998.477 555.559 998.474 554.706C998.47 553.767 999.278 553.339 1000.9 553.421L1004.48 553.541C1006.87 553.621 1010.93 553.655 1016.65 553.643L1021.51 553.632C1023.47 553.628 1024.45 554.052 1024.46 554.906Z"/>
</g>
<g fill="#090000" opacity="1" stroke="none" vectornator:blendMode="luminosity" vectornator:layerName="Text 8">
<path d="M135.535 725.096C135.54 725.682 135.286 725.975 134.773 725.975C134.333 725.975 134.02 725.791 133.833 725.425C133.646 725.058 133.286 723.811 132.752 721.684C131.23 715.817 128.369 711.892 124.171 709.91C121.666 708.735 117.224 708.146 110.844 708.142C107.911 708.14 104.538 708.248 100.727 708.466L101.046 742.125L104.236 742.127C111.13 742.131 115.431 741.4 117.14 739.934C118.85 738.469 120.113 734.399 120.93 727.727C121.067 726.774 121.429 726.297 122.016 726.298C122.603 726.298 122.901 726.848 122.912 727.948C122.908 727.581 122.876 728.076 122.816 729.433C122.755 730.79 122.74 733.008 122.769 736.088L122.837 743.237C122.885 748.37 122.954 751.762 123.043 753.412C123.132 755.062 123.182 756.473 123.193 757.647C123.204 758.82 122.88 759.406 122.22 759.406C121.267 759.406 120.706 758.232 120.537 755.885C120.119 750.532 118.766 747.048 116.478 745.433C115.37 744.626 113.423 744.222 110.636 744.22C106.896 744.218 103.706 744.253 101.067 744.325L101.319 770.943C101.364 775.637 101.757 778.387 102.498 779.194C103.239 780.001 105.772 780.405 110.099 780.408C111.419 780.409 112.082 780.702 112.087 781.289C112.094 781.949 111.4 782.279 110.007 782.278C108.394 782.277 106.45 782.239 104.176 782.164C99.6278 782.015 94.4938 781.939 88.7738 781.936C84.7404 781.933 81.1848 782.041 78.1069 782.259C77.6676 782.332 77.1546 782.369 76.5679 782.368C75.6879 782.368 75.2448 782.038 75.2385 781.378C75.2323 780.718 76.4021 780.352 78.7481 780.28C82.1934 780.135 84.0924 779.33 84.4452 777.863C84.7329 777.277 84.8699 776.25 84.856 774.784L84.1411 710.986C83.9847 709.96 83.5565 709.263 82.8563 708.896C82.1562 708.529 80.7604 708.271 78.669 708.123C76.5776 707.976 75.5295 707.645 75.5246 707.132C75.5177 706.398 76.2475 706.032 77.7142 706.033L79.8042 706.034C80.0975 706.034 82.8839 705.999 88.1632 705.929C94.0284 705.786 99.1977 705.715 103.671 705.718C110.344 705.649 115.99 705.652 120.611 705.728L128.202 705.842C129.375 705.843 131.134 705.734 133.479 705.515C134.149 714.315 134.793 720.402 135.412 723.776C135.49 724.216 135.53 724.656 135.535 725.096Z"/>
<path d="M215.846 744.281C215.95 755.281 212.61 764.573 205.825 772.159C199.041 779.745 190.662 783.535 180.688 783.529C170.935 783.523 162.539 779.669 155.499 771.965C148.459 764.261 144.888 754.983 144.785 744.13C144.679 732.984 148.056 723.673 154.915 716.197C161.774 708.722 170.337 704.987 180.604 704.993C190.504 704.999 198.826 708.762 205.571 716.282C212.315 723.802 215.74 733.135 215.846 744.281ZM196.503 746.03C196.364 731.437 194.539 720.657 191.026 713.688C188.71 709.141 185.095 706.865 180.181 706.862C175.195 706.86 171.247 710.047 168.337 716.425C165.428 722.803 164.024 731.345 164.125 742.051C164.273 757.597 167.023 769.222 172.376 776.924C174.606 780.152 177.812 781.767 181.992 781.77C186.832 781.773 190.22 779.465 192.156 774.846C195.168 767.661 196.617 758.056 196.503 746.03Z"/>
<path d="M293.425 707.258C293.43 707.845 292.187 708.174 289.694 708.246C286.615 708.318 284.75 708.83 284.099 709.783C283.881 710.076 283.741 710.699 283.676 711.652L284.117 758.18C284.282 775.486 276.077 784.134 259.504 784.125C250.997 784.12 244.372 781.513 239.63 776.303C236.073 772.415 234.247 765.521 234.153 755.621L233.753 713.383C233.731 711.037 233.351 709.607 232.612 709.093C231.874 708.579 229.56 708.174 225.671 707.879C224.864 707.805 224.457 707.511 224.453 706.998C224.446 706.338 225.103 706.009 226.423 706.009C226.423 706.009 226.716 706.01 227.303 706.01C227.964 706.084 228.514 706.121 228.954 706.121L235.775 706.235C242.229 706.312 246.996 706.315 250.075 706.243C254.181 706.172 255.794 706.136 254.914 706.136L257.224 706.137C258.471 706.138 259.098 706.505 259.105 707.238C259.111 707.898 257.977 708.228 255.704 708.226C252.477 708.224 250.76 708.81 250.551 709.983C250.412 710.79 250.346 711.56 250.353 712.293L250.743 753.431C250.799 759.371 250.945 763.147 251.18 764.761C251.739 769.528 253.128 772.975 255.348 775.103C258.086 777.744 261.656 779.066 266.056 779.069C271.042 779.072 274.694 777.46 277.01 774.235C279.833 770.35 281.197 763.385 281.102 753.339L280.757 717.04C280.751 716.38 280.78 715.537 280.843 714.511C280.834 713.484 280.828 712.861 280.826 712.641C280.808 710.734 280.246 709.487 279.14 708.9C278.403 708.459 276.971 708.239 274.844 708.237C272.203 708.163 270.879 707.722 270.871 706.915C270.866 706.328 271.376 706.035 272.403 706.036C273.503 706.037 275.117 706.093 277.245 706.204C279.372 706.315 280.986 706.371 282.086 706.372C282.16 706.372 282.783 706.335 283.955 706.263C285.202 706.263 286.339 706.264 287.365 706.265L290.005 706.266C292.279 706.268 293.418 706.598 293.425 707.258Z"/>
<path d="M371.026 707.413C371.029 707.78 370.756 708 370.207 708.073C369.658 708.146 367.697 708.255 364.325 708.399C362.346 708.472 361.213 708.874 360.926 709.607C360.637 710.047 360.55 712.394 360.663 716.647L360.894 729.406C361.048 737.913 361.19 749.022 361.32 762.735L361.497 781.434C361.509 782.681 361.259 783.304 360.745 783.304C359.939 783.303 354.546 777.232 344.568 765.09C334.589 752.948 323.623 739.064 311.668 723.438L311.745 731.578C311.771 734.364 311.831 736.784 311.924 738.837C311.943 740.891 311.955 742.137 311.959 742.577L312.284 776.786C312.298 778.326 312.784 779.279 313.741 779.646C315.286 780.234 317.086 780.528 319.139 780.529C321.559 780.531 322.918 780.715 323.214 781.082C323.288 781.155 323.326 781.302 323.329 781.522C323.334 782.108 322.787 782.401 321.687 782.401C321.027 782.4 320.476 782.363 320.036 782.29C315.634 782.141 312.884 782.066 311.784 782.065C309.217 782.064 305.844 782.135 301.666 782.279C299.613 782.351 298.734 782.388 299.027 782.388C297.927 782.387 297.374 782.093 297.369 781.507C297.364 780.993 298.973 780.628 302.198 780.41C305.935 780.118 308.093 779.533 308.671 778.653C309.032 778.067 309.191 775.427 309.146 770.734L308.718 725.526C308.674 720.906 308.574 718.12 308.418 717.166C307.948 713.94 306.642 711.592 304.502 710.125C302.878 709.024 299.865 708.399 295.464 708.249C294.29 708.175 293.7 707.845 293.695 707.258C293.688 706.598 294.199 706.269 295.225 706.269C295.665 706.27 297.243 706.344 299.957 706.492C301.278 706.566 303.258 706.604 305.898 706.606C311.325 706.609 315.724 706.538 319.096 706.393L358.177 756.023L357.764 712.465C357.747 710.705 357.443 709.587 356.852 709.11C356.261 708.633 355.011 708.357 353.104 708.283L348.372 708.06C347.491 707.986 347.049 707.729 347.045 707.289C347.039 706.703 347.696 706.41 349.016 706.411L351.436 706.412C351.876 706.412 352.609 706.376 353.635 706.303C354.589 706.304 355.432 706.304 356.165 706.305C363.572 706.309 367.899 706.348 369.146 706.422C370.394 706.496 371.02 706.827 371.026 707.413Z"/>
<path d="M450.951 743.868C451.03 752.228 449.192 759.449 445.436 765.534C441.537 771.911 435.824 776.564 428.299 779.493C423.184 781.47 415.53 782.455 405.337 782.449C405.19 782.449 404.383 782.412 402.916 782.338C401.448 782.264 399.321 782.226 396.535 782.224L392.575 782.222C392.428 782.222 390.045 782.257 385.426 782.328L378.497 782.434C377.397 782.433 376.844 782.14 376.838 781.553C376.832 780.82 377.855 780.49 379.909 780.565C383.063 780.64 384.965 780.091 385.613 778.918C385.902 778.405 386.027 776.169 385.99 772.209L385.459 716.221C385.428 712.995 385.19 711.015 384.743 710.281C383.997 708.961 382.121 708.336 379.115 708.408C377.502 708.48 376.692 708.113 376.685 707.307C376.678 706.647 377.189 706.317 378.215 706.318L380.195 706.319C384.595 706.321 388.849 706.36 392.956 706.436C398.824 706.513 403.371 706.552 406.597 706.554C419.944 706.562 430.2 709.318 437.365 714.821C446.304 721.72 450.833 731.402 450.951 743.868ZM431.921 743.857C431.806 731.757 429.925 722.902 426.279 717.29C422.632 711.678 416.959 708.87 409.259 708.865C406.473 708.864 404.642 709.156 403.768 709.742C402.601 710.475 402.031 712.198 402.057 714.911L402.59 771.228C402.636 776.068 402.955 778.745 403.547 779.259C404.434 780.066 406.381 780.47 409.388 780.472C424.641 780.481 432.152 768.276 431.921 743.857Z"/>
<path d="M535.065 781.315C535.071 781.902 534.799 782.25 534.25 782.359C533.701 782.469 532.29 782.523 530.017 782.522C529.43 782.522 527.78 782.484 525.066 782.409C519.638 782.259 515.897 782.184 513.844 782.183C511.424 782.181 509.297 782.217 507.465 782.289C503.799 782.433 501.307 782.505 499.987 782.504C498.007 782.503 497.013 782.136 497.006 781.403C496.999 780.669 499.086 780.267 503.265 780.196C504.292 780.197 505.061 780.124 505.573 779.978C506.745 779.832 507.327 779.392 507.32 778.659C507.317 778.292 506.862 776.752 505.957 774.038L503.579 766.887C503.123 765.274 502.142 762.303 500.634 757.976L498.654 757.975L490.073 757.86C486.993 757.785 483.73 757.82 480.284 757.964C479.638 759.43 478.423 762.73 476.638 767.862L474.286 775.01C473.93 776.11 473.755 776.989 473.761 777.649C473.773 778.896 474.587 779.703 476.204 780.071C476.571 780.144 478.369 780.292 481.598 780.514C482.625 780.588 483.142 780.918 483.147 781.505C483.154 782.165 482.497 782.494 481.177 782.494L463.026 782.373C462.586 782.446 462.11 782.482 461.597 782.482C460.57 782.482 460.053 782.115 460.046 781.381C460.042 780.941 461.176 780.649 463.448 780.503C466.38 780.358 468.245 779.809 469.042 778.857C469.84 777.904 471.131 774.825 472.915 769.619C474.273 765.954 476.239 760.528 478.81 753.344L491.773 716.723C492.418 715.11 493.311 712.581 494.451 709.135C495.234 706.642 495.846 705.396 496.286 705.396C496.726 705.396 497.548 707.084 498.754 710.457C500.261 714.785 506.877 731.874 518.6 761.726C520.103 765.54 521.606 769.428 523.11 773.388C524.389 776.762 525.655 778.816 526.909 779.55C527.868 780.137 530.143 780.395 533.736 780.324C534.616 780.325 535.059 780.655 535.065 781.315ZM499.841 755.556C499.766 755.336 499.503 754.639 499.052 753.465C496.038 744.957 493.854 738.98 492.502 735.532C492.126 734.579 491.599 733.185 490.922 731.352L490.243 729.371C488.953 732.524 487.381 736.886 485.527 742.458C483.46 748.69 481.961 753.052 481.031 755.545C481.691 755.545 482.498 755.509 483.45 755.436C484.33 755.437 485.137 755.437 485.87 755.438L492.03 755.441C493.717 755.442 496.321 755.48 499.841 755.556Z"/>
<path d="M603.898 726.798C603.904 727.384 603.65 727.677 603.136 727.677C602.33 727.677 601.583 726.246 600.896 723.386C599.522 717.739 597.652 713.888 595.286 711.833C592.92 709.779 589.17 708.75 584.037 708.747C582.057 708.746 580.334 708.818 578.869 708.964L579.613 775.841C579.704 777.674 580.228 778.848 581.187 779.362C582.145 779.876 584.716 780.317 588.899 780.686C589.706 780.76 590.113 781.09 590.118 781.677C590.125 782.41 589.542 782.776 588.369 782.776C588.149 782.776 587.599 782.739 586.718 782.665C585.617 782.591 584.7 782.554 583.967 782.553L572.634 782.217L553.937 782.536C552.91 782.535 552.394 782.242 552.388 781.655C552.384 781.215 552.529 780.958 552.821 780.885C553.114 780.812 554.323 780.739 556.449 780.667C560.481 780.523 562.635 779.571 562.912 777.811C563.05 776.858 563.052 769.415 562.92 755.482L562.479 708.954C561.672 708.881 560.718 708.843 559.618 708.843C553.751 708.839 549.49 709.919 546.834 712.08C544.178 714.242 542.472 718.072 541.718 723.572C541.235 726.798 540.59 728.411 539.784 728.41C539.124 728.41 538.79 727.97 538.781 727.09C538.776 726.503 538.903 724.487 539.164 721.04C539.682 713.854 540.002 708.941 540.124 706.302L541.774 706.303L549.803 706.197C550.023 706.197 552.572 706.272 557.45 706.422C562.328 706.571 568.544 706.648 576.097 706.653C580.277 706.655 584.017 706.62 587.316 706.549C590.616 706.478 593.622 706.443 596.335 706.444C598.755 706.446 600.588 706.373 601.833 706.227C602.098 710.994 602.706 717.081 603.656 724.488C603.815 725.734 603.895 726.504 603.898 726.798Z"/>
<path d="M644.618 781.709C644.624 782.295 644.15 782.588 643.197 782.588C642.683 782.587 642.206 782.55 641.766 782.477C637.364 782.254 633.586 782.142 630.433 782.14C627.133 782.138 622.294 782.246 615.916 782.462C613.79 782.534 612.213 782.57 611.187 782.569C610.087 782.568 609.534 782.238 609.527 781.578C609.524 781.212 609.724 780.992 610.126 780.919C610.529 780.845 611.94 780.773 614.359 780.701C616.628 780.262 617.942 779.585 618.3 778.668C618.658 777.752 618.813 774.801 618.766 769.814L618.264 716.906C618.251 715.513 618.238 714.157 618.226 712.837C618.14 711.517 618.097 710.893 618.098 710.967C618.081 709.133 616.239 708.216 612.572 708.214C610.519 708.212 609.489 707.955 609.485 707.442C609.48 706.929 609.624 706.635 609.916 706.562C610.209 706.489 611.162 706.453 612.775 706.454C612.042 706.453 613.362 706.491 616.736 706.566C620.11 706.641 623.007 706.68 625.427 706.681L631.037 706.684C632.211 706.685 633.878 706.631 636.041 706.522C638.203 706.414 639.724 706.359 640.604 706.36L641.704 706.361C642.657 706.361 643.137 706.655 643.142 707.241C643.147 707.681 642.984 707.956 642.655 708.066C642.326 708.176 641.209 708.267 639.303 708.339C637.031 708.484 635.642 708.96 635.136 709.767L634.826 711.856L635.415 774.004C635.445 777.157 635.811 779.027 636.514 779.614C637.216 780.201 639.585 780.606 643.62 780.828C644.281 780.902 644.614 781.195 644.618 781.709Z"/>
<path d="M724.946 744.577C725.05 755.577 721.71 764.869 714.925 772.455C708.141 780.041 699.762 783.83 689.788 783.825C680.035 783.819 671.638 779.964 664.599 772.261C657.559 764.557 653.988 755.279 653.885 744.426C653.779 733.28 657.156 723.969 664.015 716.493C670.874 709.017 679.437 705.283 689.704 705.289C699.604 705.294 707.926 709.057 714.671 716.578C721.415 724.098 724.84 733.431 724.946 744.577ZM705.603 746.326C705.464 731.733 703.639 720.953 700.126 713.984C697.81 709.436 694.195 707.161 689.281 707.158C684.295 707.155 680.347 710.343 677.437 716.721C674.528 723.099 673.124 731.641 673.225 742.347C673.372 757.893 676.123 769.517 681.476 777.22C683.706 780.448 686.912 782.063 691.092 782.066C695.932 782.068 699.32 779.76 701.256 775.142C704.268 767.957 705.717 758.352 705.603 746.326Z"/>
<path d="M806.486 707.666C806.489 708.033 806.216 708.253 805.667 708.326C805.118 708.399 803.157 708.508 799.785 708.652C797.806 708.725 796.673 709.127 796.386 709.86C796.097 710.3 796.009 712.647 796.123 716.9L796.354 729.659C796.508 738.166 796.65 749.275 796.78 762.988L796.957 781.687C796.969 782.934 796.718 783.557 796.205 783.557C795.398 783.556 790.006 777.485 780.028 765.343C770.049 753.201 759.083 739.317 747.128 723.691L747.205 731.831C747.231 734.617 747.291 737.037 747.384 739.09C747.403 741.144 747.415 742.39 747.419 742.83L747.744 777.039C747.758 778.579 748.244 779.532 749.201 779.899C750.746 780.487 752.546 780.781 754.599 780.782C757.019 780.784 758.377 780.968 758.674 781.335C758.748 781.408 758.786 781.555 758.788 781.775C758.794 782.362 758.247 782.655 757.147 782.654C756.487 782.653 755.936 782.617 755.496 782.543C751.094 782.394 748.344 782.319 747.244 782.318C744.677 782.317 741.304 782.388 737.126 782.532C735.073 782.604 734.193 782.641 734.487 782.641C733.387 782.64 732.834 782.346 732.828 781.76C732.824 781.246 734.433 780.881 737.658 780.663C741.395 780.372 743.553 779.786 744.131 778.907C744.492 778.32 744.651 775.68 744.606 770.987L744.178 725.779C744.134 721.159 744.034 718.373 743.878 717.419C743.408 714.193 742.102 711.845 739.962 710.378C738.338 709.277 735.325 708.652 730.924 708.502C729.75 708.428 729.16 708.098 729.155 707.511C729.148 706.851 729.658 706.522 730.685 706.522C731.125 706.523 732.702 706.597 735.417 706.745C736.738 706.819 738.718 706.857 741.358 706.859C746.785 706.862 751.184 706.791 754.556 706.646L793.636 756.276L793.224 712.718C793.207 710.958 792.903 709.84 792.312 709.363C791.721 708.886 790.471 708.61 788.564 708.536L783.832 708.313C782.951 708.239 782.509 707.982 782.505 707.542C782.499 706.956 783.156 706.663 784.476 706.664L786.896 706.665C787.336 706.665 788.069 706.629 789.095 706.556C790.048 706.557 790.892 706.557 791.625 706.558C799.032 706.562 803.359 706.601 804.606 706.675C805.854 706.749 806.48 707.08 806.486 707.666Z"/>
<path d="M868.888 781.839C868.894 782.425 868.42 782.719 867.467 782.718C866.953 782.718 866.476 782.681 866.036 782.607C861.634 782.385 857.856 782.272 854.703 782.271C851.403 782.269 846.564 782.376 840.186 782.592C838.06 782.664 836.483 782.7 835.457 782.699C834.357 782.699 833.804 782.368 833.797 781.708C833.794 781.342 833.993 781.122 834.396 781.049C834.799 780.976 836.21 780.903 838.629 780.831C840.898 780.393 842.212 779.715 842.57 778.799C842.928 777.882 843.083 774.931 843.036 769.944L842.534 717.037C842.521 715.644 842.508 714.287 842.496 712.967C842.41 711.647 842.367 711.024 842.368 711.097C842.35 709.264 840.508 708.346 836.842 708.344C834.788 708.343 833.759 708.085 833.755 707.572C833.75 707.059 833.894 706.766 834.186 706.692C834.479 706.619 835.432 706.583 837.045 706.584C836.312 706.584 837.632 706.621 841.006 706.696C844.38 706.772 847.277 706.81 849.697 706.811L855.307 706.815C856.481 706.815 858.148 706.761 860.311 706.653C862.473 706.544 863.994 706.49 864.874 706.49L865.974 706.491C866.927 706.492 867.407 706.785 867.412 707.372C867.417 707.812 867.254 708.087 866.925 708.196C866.596 708.306 865.479 708.397 863.573 708.469C861.301 708.615 859.912 709.091 859.406 709.897L859.096 711.987L859.685 774.134C859.715 777.287 860.081 779.157 860.784 779.744C861.486 780.331 863.855 780.736 867.89 780.958C868.551 781.032 868.884 781.326 868.888 781.839Z"/>
<path d="M947.656 707.748C947.659 708.115 947.386 708.335 946.837 708.408C946.287 708.481 944.327 708.59 940.955 708.734C938.976 708.807 937.843 709.209 937.556 709.942C937.267 710.382 937.179 712.729 937.293 716.982L937.524 729.741C937.678 738.248 937.82 749.357 937.95 763.07L938.127 781.769C938.139 783.016 937.888 783.639 937.375 783.639C936.568 783.638 931.176 777.567 921.197 765.425C911.219 753.283 900.253 739.399 888.298 723.773L888.375 731.913C888.401 734.699 888.461 737.119 888.554 739.172C888.573 741.226 888.585 742.472 888.589 742.912L888.914 777.121C888.928 778.661 889.414 779.614 890.371 779.981C891.916 780.569 893.716 780.863 895.769 780.865C898.189 780.866 899.547 781.05 899.844 781.417C899.918 781.49 899.956 781.637 899.958 781.857C899.964 782.444 899.417 782.737 898.317 782.736C897.657 782.736 897.106 782.699 896.666 782.625C892.264 782.476 889.514 782.401 888.414 782.4C885.847 782.399 882.474 782.47 878.296 782.614C876.243 782.686 875.363 782.723 875.657 782.723C874.557 782.722 874.004 782.428 873.998 781.842C873.994 781.329 875.603 780.963 878.828 780.745C882.565 780.454 884.723 779.868 885.301 778.989C885.662 778.402 885.821 775.762 885.776 771.069L885.348 725.861C885.304 721.241 885.204 718.455 885.048 717.501C884.578 714.275 883.272 711.927 881.132 710.46C879.508 709.359 876.495 708.734 872.094 708.584C870.92 708.51 870.33 708.18 870.324 707.593C870.318 706.933 870.828 706.604 871.855 706.604C872.295 706.605 873.872 706.679 876.587 706.827C877.908 706.901 879.888 706.939 882.528 706.941C887.955 706.944 892.354 706.873 895.726 706.728L934.806 756.358L934.394 712.8C934.377 711.04 934.073 709.922 933.482 709.445C932.891 708.968 931.641 708.692 929.734 708.618L925.002 708.395C924.121 708.321 923.679 708.064 923.674 707.624C923.669 707.038 924.326 706.745 925.646 706.746L928.066 706.747C928.506 706.747 929.239 706.711 930.265 706.638C931.218 706.639 932.062 706.639 932.795 706.64C940.202 706.644 944.529 706.683 945.776 706.757C947.024 706.831 947.65 707.162 947.656 707.748Z"/>
<path d="M1018.48 758.607L1018.39 760.477C1018.39 760.843 1018.23 763.153 1017.9 767.406C1017.64 770.633 1017.51 773.126 1017.53 774.886C1017.55 777.085 1017.61 778.919 1017.69 780.385C1017.77 780.899 1017.81 781.522 1017.82 782.255C1017.83 783.062 1017.65 783.465 1017.28 783.465C1016.92 783.465 1016.51 783.098 1016.06 782.364C1014.42 779.724 1012.68 777.999 1010.84 777.192C1005.39 781.881 999.507 784.225 993.2 784.221C983.594 784.215 975.09 780.617 967.688 773.427C959.842 765.796 955.865 756.187 955.755 744.601C955.649 733.382 959.061 724.016 965.993 716.504C972.926 708.991 981.635 705.238 992.122 705.244C996.962 705.247 1001.3 706.35 1005.13 708.552C1007.34 709.8 1008.96 710.424 1009.99 710.424C1011.53 710.425 1012.95 709.73 1014.26 708.337C1015.2 707.311 1015.79 706.798 1016.01 706.798C1016.3 706.798 1016.45 707.055 1016.45 707.568C1016.46 707.788 1016.42 708.118 1016.35 708.558C1015.94 711.051 1015.75 714.131 1015.78 717.797C1015.78 718.164 1015.83 719.667 1015.93 722.307C1015.96 724.874 1015.97 726.597 1015.98 727.477L1016.01 729.897C1016.02 731.217 1015.66 731.877 1014.92 731.876C1014.34 731.876 1013.74 730.446 1013.12 727.585C1010.36 714.384 1004.25 707.781 994.786 707.776C987.306 707.771 981.925 712.608 978.643 722.286C976.359 728.884 975.261 736.803 975.348 746.043C975.478 759.755 978.36 769.803 983.994 776.186C986.959 779.561 990.825 781.25 995.592 781.253C1005.93 781.259 1012.65 774.369 1015.75 760.585C1016.24 758.312 1016.81 757.176 1017.47 757.176C1018.21 757.177 1018.54 757.654 1018.48 758.607Z"/>
<path d="M1050.81 775.895C1050.83 778.168 1050.12 780.038 1048.66 781.503C1047.21 782.969 1045.35 783.701 1043.08 783.7C1040.8 783.699 1038.89 782.946 1037.33 781.442C1035.78 779.938 1034.99 778.086 1034.97 775.886C1034.95 773.612 1035.7 771.706 1037.23 770.167C1038.75 768.628 1040.65 767.859 1042.92 767.861C1045.05 767.862 1046.89 768.633 1048.45 770.174C1050 771.715 1050.79 773.622 1050.81 775.895Z"/>
</g>
</g>
</svg>
