<?xml version="1.0" encoding="UTF-8" standalone="no"?>
<!DOCTYPE svg PUBLIC "-//W3C//DTD SVG 1.1//EN" "http://www.w3.org/Graphics/SVG/1.1/DTD/svg11.dtd">
<!-- Created with Vectornator (http://vectornator.io/) -->
<svg height="100%" stroke-miterlimit="10" style="fill-rule:nonzero;clip-rule:evenodd;stroke-linecap:round;stroke-linejoin:round;" version="1.1" viewBox="0 0 3370.82 2384.24" width="100%" xml:space="preserve" xmlns="http://www.w3.org/2000/svg" xmlns:vectornator="http://vectornator.io" xmlns:xlink="http://www.w3.org/1999/xlink">
<defs>
<linearGradient gradientTransform="matrix(1.9683 -0.00658593 0.00622407 2.08273 272.079 114.144)" gradientUnits="userSpaceOnUse" id="LinearGradient" x1="207.447" x2="592.232" y1="637.423" y2="637.423">
<stop offset="0.466635" stop-color="#f2cb05"/>
<stop offset="1" stop-color="#f2911b"/>
</linearGradient>
<filter color-interpolation-filters="sRGB" filterUnits="userSpaceOnUse" height="1538.13" id="Filter" width="785.162" x="671.169" y="680.058">
<feDropShadow dx="-3.67321e-05" dy="10" flood-color="#000000" flood-opacity="0.333" in="SourceGraphic" result="Shadow" stdDeviation="5"/>
</filter>
<filter color-interpolation-filters="sRGB" filterUnits="userSpaceOnUse" height="1543.6" id="Filter_2" width="777.463" x="1922.18" y="672.375">
<feDropShadow dx="-3.67321e-05" dy="10" flood-color="#000000" flood-opacity="0.2" in="SourceGraphic" result="Shadow" stdDeviation="5"/>
</filter>
<linearGradient gradientTransform="matrix(1.53535 -0.00513731 0.00469052 1.56957 579.171 88.7665)" gradientUnits="userSpaceOnUse" id="LinearGradient_2" x1="569.264" x2="869.298" y1="244.747" y2="244.747">
<stop offset="0.602786" stop-color="#03a64a"/>
<stop offset="1" stop-color="#108c03"/>
</linearGradient>
<filter color-interpolation-filters="sRGB" filterUnits="userSpaceOnUse" height="586.343" id="Filter_3" width="485.657" x="1441.86" y="186.044">
<feDropShadow dx="-3.67321e-05" dy="10" flood-color="#000000" flood-opacity="0.333" in="SourceGraphic" result="Shadow" stdDeviation="5"/>
</filter>
<filter color-interpolation-filters="sRGB" filterUnits="userSpaceOnUse" height="576.327" id="Filter_4" width="485.649" x="1918.15" y="194.609">
<feDropShadow dx="-3.67321e-05" dy="10" flood-color="#000000" flood-opacity="0.333" in="SourceGraphic" result="Shadow" stdDeviation="5"/>
</filter>
<filter color-interpolation-filters="sRGB" filterUnits="userSpaceOnUse" height="564.627" id="Filter_5" width="486.785" x="964.625" y="209.399">
<feDropShadow dx="-3.67321e-05" dy="10" flood-color="#000000" flood-opacity="0.333" in="SourceGraphic" result="Shadow" stdDeviation="5"/>
</filter>
<linearGradient gradientTransform="matrix(1.9683 -0.00658593 0.00622407 2.08273 272.079 114.144)" gradientUnits="userSpaceOnUse" id="LinearGradient_3" x1="451.174" x2="982.651" y1="632.955" y2="632.955">
<stop offset="0" stop-color="#078d41"/>
<stop offset="0.530953" stop-color="#236d43"/>
</linearGradient>
<filter color-interpolation-filters="sRGB" filterUnits="userSpaceOnUse" height="1559.56" id="Filter_6" width="1072.44" x="1149.36" y="657.577">
<feDropShadow dx="-3.67321e-05" dy="10" flood-color="#000000" flood-opacity="0.333" in="SourceGraphic" result="Shadow" stdDeviation="5"/>
</filter>
</defs>
<g id="Layer-1" vectornator:layerName="Layer 1">
<path d="M687.303 682.558C686.589 683.292 685.166 683.726 685.161 684.762C684.725 776.647 685.894 868.533 685.984 960.42C686.07 1047.18 683.428 1127.28 683.687 1214.04C683.689 1214.86 684.597 1215.77 685.079 1216.42C692.053 1225.87 710.618 1224.8 719.004 1224.99C744.44 1225.55 771.298 1232.01 795.325 1240.11C871.725 1265.86 928.6 1325.38 958.024 1399.91C989.007 1478.39 984.329 1574.66 984.572 1655.71C984.699 1698.25 981.77 1740.58 983.878 1783.11C989.606 1898.64 1027.16 2014.31 1108.36 2096.79C1125.59 2114.29 1158.83 2140.79 1183.71 2147.06C1193.11 2149.43 1202.93 2155.71 1211.68 2160.15C1234.87 2171.9 1265.51 2177.19 1291.25 2182.94C1333.8 2192.46 1377.65 2195.83 1421.28 2195.69C1429.09 2195.66 1436.52 2194.84 1443.83 2192.32C1443.09 1943.02 1442.69 1693.71 1441.6 1444.42C1441.55 1433.62 1438.42 1421.72 1435.05 1411.49C1409.09 1332.69 1341.52 1282.92 1271.27 1247.3C1246.14 1234.56 1217.5 1225.89 1190.6 1216.82C1187.56 1215.8 1165.9 1211.66 1165.87 1208.12C1164.81 1092.44 1165.89 976.75 1164.83 861.073C1164.79 856.471 1144.19 846.375 1140.07 843.584C1116.03 827.317 1090.6 811.922 1064.73 798.808C988.697 760.256 905.941 726.688 820.585 705.175C780.701 695.123 738.748 693.603 687.303 682.558Z" fill="url(#LinearGradient)" fill-rule="nonzero" filter="url(#Filter)" stroke="none" vectornator:layerName="Curve 1" vectornator:shadowAngle="1.5708" vectornator:shadowColor="#000000" vectornator:shadowOffset="10" vectornator:shadowOpacity="0.333" vectornator:shadowRadius="10"/>
<path d="M2671.53 675.919C2642.61 681.1 2613.16 683.889 2584.56 690.487C2486.53 713.099 2387.6 744.838 2303.41 796.86C2279.33 811.735 2254.94 825.924 2230.48 841.034C2227.03 843.167 2206.95 853.704 2206.9 857.586C2205.48 972.893 2192.23 1082.23 2191.51 1197.55C2191.49 1201.55 2185 1212.36 2181.11 1213.51C2155.29 1221.14 2128.94 1231.04 2104.92 1243.41C2030.59 1281.71 1950.12 1338.55 1935.73 1428.49C1935.26 1431.4 1934.68 1434.32 1934.68 1437.27C1934.72 1688.04 1934.75 1938.81 1935.86 2189.57C1935.88 2195.89 1947.95 2192.57 1954.13 2192.81C1979.06 2193.74 2001.63 2193.63 2026.1 2191.47C2125.08 2182.7 2220.56 2144.54 2291.1 2071.97C2355.48 2005.74 2391.08 1866.17 2392.28 1776.2C2392.78 1738.13 2393.12 1700.05 2393.01 1661.98C2392.89 1622.44 2391.7 1582.91 2391.58 1543.37C2391.43 1493 2402.61 1396.65 2435.06 1352.13C2447.8 1334.65 2458.32 1314.98 2473.57 1299.29C2502.84 1269.18 2537.96 1248.53 2576.52 1235.25C2600.67 1226.93 2627.3 1220.94 2652.75 1219.62C2663.48 1219.06 2674.27 1219.47 2684.97 1218.41C2685.98 1218.31 2687.11 1217.24 2687.11 1216.21C2687.29 1036.83 2686.75 857.444 2685.5 678.068C2685.47 673.253 2676.17 675.087 2671.53 675.919Z" fill="#f22727" fill-rule="nonzero" filter="url(#Filter_2)" stroke="none" vectornator:layerName="Curve 2" vectornator:shadowAngle="1.5708" vectornator:shadowColor="#000000" vectornator:shadowOffset="10" vectornator:shadowOpacity="0.2" vectornator:shadowRadius="10"/>
<path d="M1666.51 188.544C1522.25 204.508 1438.37 374.681 1456.9 513.495C1461.53 548.139 1468.01 597.878 1488.89 626.159C1518.22 665.872 1545.67 708.724 1593.98 728.294C1631.19 743.365 1664.12 750.024 1705.77 749.885C1729.02 749.807 1753.36 739.113 1773.39 728.792C1854.29 687.105 1905.94 601.595 1913.47 509.771C1921.73 409.082 1897.25 321.058 1827.98 250.688C1817.54 240.082 1772.26 204.626 1757.08 200.8C1744.12 197.533 1731.69 193.102 1717.95 189.139" fill="url(#LinearGradient_2)" fill-rule="nonzero" filter="url(#Filter_3)" stroke="none" vectornator:layerName="Curve 3" vectornator:shadowAngle="1.5708" vectornator:shadowColor="#000000" vectornator:shadowOffset="10" vectornator:shadowOpacity="0.333" vectornator:shadowRadius="10"/>
<path d="M2145.24 197.597C1987.23 207.627 1909.36 388.917 1935.68 534.363C1945.87 590.654 1975.98 644.274 2015.63 684.555C2025.1 694.174 2055.01 678.748 2067.17 675.597C2109.27 664.689 2164.52 676.599 2207.93 676.454C2208.2 676.453 2195.64 672.673 2198.53 674.142C2217.71 683.866 2185.4 752.933 2208.14 748.204C2225.35 744.625 2252.41 723.544 2267.11 714.465C2335.23 672.374 2371.05 603.987 2385.8 527.365C2402.6 440.08 2380.89 340.959 2320.58 274.986C2307.31 260.463 2286.03 235.103 2265.65 226.847C2221.57 208.989 2198.72 194.202 2145.24 197.597Z" fill="#ed4c38" fill-rule="nonzero" filter="url(#Filter_4)" stroke="none" vectornator:layerName="Curve 4" vectornator:shadowAngle="1.5708" vectornator:shadowColor="#000000" vectornator:shadowOffset="10" vectornator:shadowOpacity="0.333" vectornator:shadowRadius="10"/>
<path d="M1193.16 211.899C1019.61 227.269 936.362 444.275 996.633 596.944C1016.97 648.453 1052.47 699.347 1100.16 728.388C1110.91 734.934 1215.03 751.527 1215.03 751.527C1215.03 751.527 1161.2 705.123 1161.83 680.97C1161.98 675.013 1168.31 675.721 1174.13 675.424C1185.22 674.86 1196.32 674.252 1207.43 674.215C1243.42 674.094 1280.14 682.663 1314.91 691.427C1317.82 692.161 1349.23 702.375 1349.32 702.294C1377.11 679.147 1397 644.948 1412.44 613.125C1487.3 458.866 1400.01 227.543 1193.16 211.899Z" fill="#f2cb05" fill-rule="nonzero" filter="url(#Filter_5)" stroke="none" vectornator:layerName="Curve 5" vectornator:shadowAngle="1.5708" vectornator:shadowColor="#000000" vectornator:shadowOffset="10" vectornator:shadowOpacity="0.333" vectornator:shadowRadius="10"/>
<path d="M1182.5 663.329C1175.57 663.942 1162.28 660.684 1162.1 667.79C1161.48 692.676 1162.25 717.577 1162.33 742.47C1162.33 743.203 1162.33 743.935 1162.33 744.667C1162.45 782.739 1162.56 820.812 1162.67 858.884C1162.68 859.616 1162.68 860.348 1162.68 861.08C1163.03 977.128 1162.66 1093.18 1163.72 1209.22C1163.76 1212.99 1183.32 1215.97 1186.3 1216.83C1206.76 1222.74 1226.86 1230.63 1246.53 1238.6C1303.33 1261.61 1361.46 1297.26 1399.41 1346.81C1408.93 1359.25 1422.47 1377 1426.4 1392.85C1430.49 1409.33 1438.27 1425.74 1438.37 1443.33C1439.82 1692.99 1439.87 1942.66 1441.68 2192.32C1441.71 2195.44 1446.6 2194.5 1448.13 2194.5C1611.07 2193.95 1774.01 2194.14 1936.94 2192.86C1937.95 2192.86 1939.08 2191.7 1939.08 2190.66C1938.69 1939.89 1936.51 1689.13 1935.76 1438.37C1935.5 1352.25 2039.73 1272.52 2110.29 1243.4C2135.52 1232.98 2160.66 1223.48 2186.48 1214.59C2189.62 1213.5 2209.23 1202.65 2209.25 1198.5C2209.78 1030.09 2206.14 694.597 2206.14 694.597C2206.14 694.597 2205.6 675.435 2205.3 665.838C2205.1 659.522 2196.37 661.322 2190.2 661.055C2178.03 660.531 2165.85 660.039 2153.67 660.079C2126.09 660.172 2097.81 666.247 2070.98 672.437C1920.18 707.224 1799.52 801.645 1686 905.456C1560.48 777.946 1394.79 675.913 1182.5 663.329Z" fill="url(#LinearGradient_3)" fill-rule="nonzero" filter="url(#Filter_6)" stroke="none" vectornator:layerName="Curve 6" vectornator:shadowAngle="1.5708" vectornator:shadowColor="#000000" vectornator:shadowOffset="10" vectornator:shadowOpacity="0.333" vectornator:shadowRadius="10"/>
</g>
</svg>
